<?xml version="1.0" encoding="UTF-8"?>
<svg xmlns="http://www.w3.org/2000/svg" viewBox="0 0 1200 630" width="1200" height="630">
  <defs>
    <linearGradient id="g68470" x1="85.35533905932738%" y1="14.644660940672622%" x2="14.64466094067263%" y2="85.35533905932738%">
      <stop offset="0%" stop-color="#D97706"/>
      <stop offset="100%" stop-color="#B45309"/>
    </linearGradient>
  </defs>
  <rect width="1200" height="630" fill="url(#g68470)"/>
  <polygon points="479.2930063512176,224.39807212445885 549.2930063512176,184.39807212445885 619.2930063512176,224.39807212445885 549.2930063512176,264.39807212445885" fill="rgba(255,255,255,0.08)" stroke="rgba(255,255,255,0.15)" stroke-width="2"/><line x1="609.2930063512176" y1="229.39807212445885" x2="609.2930063512176" y2="284.39807212445885" stroke="rgba(255,255,255,0.12)" stroke-width="2"/><path d="M 891.9721555430442 406.7337883077562 C 861.9721555430442 396.7337883077562 811.9721555430442 401.7337883077562 801.9721555430442 336.7337883077562 L 891.9721555430442 346.7337883077562 L 981.9721555430442 336.7337883077562 C 971.9721555430442 401.7337883077562 921.9721555430442 396.7337883077562 891.9721555430442 406.7337883077562 Z" fill="rgba(255,255,255,0.06)" stroke="rgba(255,255,255,0.12)" stroke-width="1.5"/><line x1="891.9721555430442" y1="406.7337883077562" x2="891.9721555430442" y2="346.7337883077562" stroke="rgba(255,255,255,0.12)" stroke-width="1.5"/><rect x="247.0038237515837" y="393.2729965634644" width="8" height="100" rx="1" fill="rgba(255,255,255,0.1)" transform="rotate(36.127731748856604 247.0038237515837 393.2729965634644)"/><circle cx="923.7962191924453" cy="170.33901745453477" r="30" fill="none" stroke="rgba(255,255,255,0.12)" stroke-width="2"/><line x1="913.7962191924453" y1="200.33901745453477" x2="933.7962191924453" y2="200.33901745453477" stroke="rgba(255,255,255,0.1)" stroke-width="2"/><line x1="915.7962191924453" y1="207.33901745453477" x2="931.7962191924453" y2="207.33901745453477" stroke="rgba(255,255,255,0.1)" stroke-width="2"/><circle cx="703.6692390684038" cy="282.86863058805466" r="5.681935701519251" fill="rgba(255,255,255,0.04440700093284249)"/><circle cx="865.720157744363" cy="274.68502189265564" r="4.416052032262087" fill="rgba(255,255,255,0.0739238640666008)"/><circle cx="797.4962232401595" cy="351.0665939701721" r="5.144972114823759" fill="rgba(255,255,255,0.1183442360535264)"/><circle cx="313.4702438954264" cy="435.68256529513747" r="5.544701991602778" fill="rgba(255,255,255,0.04047545377165079)"/><circle cx="1030.4864702746272" cy="393.4117469214834" r="2.2241484289988875" fill="rgba(255,255,255,0.11806258341297507)"/><circle cx="821.1763384053484" cy="346.3467125664465" r="5.762887790799141" fill="rgba(255,255,255,0.06917514845728874)"/><circle cx="720.4752897145227" cy="149.98540163738653" r="5.246351016685367" fill="rgba(255,255,255,0.09167466178536415)"/><circle cx="216.3255845196545" cy="282.1022456162609" r="3.1216391744092107" fill="rgba(255,255,255,0.04066042685881257)"/><circle cx="499.3861664785072" cy="496.08193749561906" r="4.144165217876434" fill="rgba(255,255,255,0.11840110767632722)"/><circle cx="422.6617767708376" cy="269.3043173896149" r="5.143110455945134" fill="rgba(255,255,255,0.11408359730616213)"/><circle cx="108.90700160525739" cy="247.49720916152" r="5.322926852852106" fill="rgba(255,255,255,0.05057748330757022)"/><circle cx="241.95767953060567" cy="467.6990476017818" r="4.707752101123333" fill="rgba(255,255,255,0.04972629139199853)"/><circle cx="383.0333967227489" cy="432.8675953974016" r="2.4319510823115706" fill="rgba(255,255,255,0.063209282848984)"/><circle cx="1083.871058980003" cy="68.96619157865644" r="2.0133451418951154" fill="rgba(255,255,255,0.0901564926840365)"/><circle cx="221.56101176515222" cy="265.8295410871506" r="2.633753721602261" fill="rgba(255,255,255,0.10601746585220098)"/>
  <circle cx="347.91674008592963" cy="68.51275868481025" r="1.6920421170070767" fill="rgba(255,255,255,0.07255655168090017)"/><circle cx="336.18307560682297" cy="526.6778872534633" r="2.986191469244659" fill="rgba(255,255,255,0.07234590999549255)"/><circle cx="34.44206854328513" cy="384.46126559749246" r="2.416886498220265" fill="rgba(255,255,255,0.05684632213786245)"/><circle cx="85.34532599151134" cy="34.21643960522488" r="2.657677891664207" fill="rgba(255,255,255,0.053799473268445586)"/><circle cx="471.7650454491377" cy="45.13573276810348" r="1.4483956093899906" fill="rgba(255,255,255,0.0729484064807184)"/><circle cx="5.579618643969297" cy="38.364896073471755" r="2.7285119011066854" fill="rgba(255,255,255,0.04411847774870693)"/><circle cx="328.68473874405026" cy="151.24079203465953" r="2.0844787545502186" fill="rgba(255,255,255,0.07185118575114757)"/><circle cx="1116.5002196095884" cy="282.1077053574845" r="1.8272771034389734" fill="rgba(255,255,255,0.05773091058479622)"/><circle cx="529.1861152276397" cy="590.1411043899134" r="2.1802262980490923" fill="rgba(255,255,255,0.0387724085431546)"/><circle cx="1098.1807683594525" cy="500.33108634408563" r="2.742421285249293" fill="rgba(255,255,255,0.06360710568958894)"/><circle cx="695.9480753168464" cy="590.3633178630844" r="2.834289774298668" fill="rgba(255,255,255,0.03564612436573952)"/><circle cx="1192.2481915913522" cy="188.6346990452148" r="1.4515600088052452" fill="rgba(255,255,255,0.07781550549669192)"/><circle cx="269.700104277581" cy="15.340744131244719" r="2.151090081781149" fill="rgba(255,255,255,0.05060475327307358)"/><circle cx="504.6250121667981" cy="385.2683668700047" r="2.370518723502755" fill="rgba(255,255,255,0.031185433857608587)"/><circle cx="608.7165839038789" cy="189.82483531348407" r="1.145199743565172" fill="rgba(255,255,255,0.03702177586499601)"/><circle cx="373.59214536845684" cy="57.09877842105925" r="1.369186231866479" fill="rgba(255,255,255,0.046940277942921965)"/><circle cx="202.63164332136512" cy="536.3101359154098" r="1.6288582952693105" fill="rgba(255,255,255,0.0575558510213159)"/><circle cx="643.0042496882379" cy="275.4360427125357" r="1.2256322749890387" fill="rgba(255,255,255,0.037453611271921546)"/><circle cx="462.8055707551539" cy="25.240857631433755" r="1.7929036263376474" fill="rgba(255,255,255,0.06147676212247461)"/><circle cx="121.16793980821967" cy="339.4102596002631" r="1.6325251096859574" fill="rgba(255,255,255,0.049860890286508947)"/>
  <text x="600" y="335" font-family="system-ui, -apple-system, 'Segoe UI', sans-serif" font-size="58" font-weight="700" fill="rgba(0,0,0,0.15)" text-anchor="middle" letter-spacing="1">Matric NSC South Africa</text>
  <text x="600" y="332" font-family="system-ui, -apple-system, 'Segoe UI', sans-serif" font-size="58" font-weight="700" fill="white" text-anchor="middle" letter-spacing="1">Matric NSC South Africa</text>
  <g transform="translate(1140, 575)">
    <rect x="0" y="0" width="40" height="40" rx="8" fill="rgba(255,255,255,0.15)"/>
    <text x="20" y="29" font-family="sans-serif" font-weight="bold" font-size="24" fill="rgba(255,255,255,0.6)" text-anchor="middle">K</text>
  </g>
</svg>